<!DOCTYPE svg PUBLIC "-//W3C//DTD SVG 1.1//EN" "http://www.w3.org/Graphics/SVG/1.1/DTD/svg11.dtd">
<!-- Uploaded to: SVG Repo, www.svgrepo.com, Transformed by: SVG Repo Mixer Tools -->
<svg fill="#ffffff" version="1.1" id="Capa_1" xmlns="http://www.w3.org/2000/svg" xmlns:xlink="http://www.w3.org/1999/xlink" width="800px" height="800px" viewBox="0 0 442.761 442.762" xml:space="preserve" transform="matrix(-1, 0, 0, 1, 0, 0)" stroke="#ffffff">
<g id="SVGRepo_bgCarrier" stroke-width="0"/>
<g id="SVGRepo_tracerCarrier" stroke-linecap="round" stroke-linejoin="round"/>
<g id="SVGRepo_iconCarrier"> <g> <path d="M237.082,31.617c-113.596,0-205.681,84.96-205.681,189.764c0,28.473,6.809,55.473,18.986,79.711L1.735,389.064 c-2.703,4.887-2.215,10.916,1.239,15.307c2.673,3.396,6.722,5.299,10.911,5.299c1.223,0,2.457-0.162,3.674-0.498l106.506-29.232 c32.435,19.719,71.269,31.205,113.017,31.205c113.594,0,205.68-84.959,205.68-189.764 C442.761,116.577,350.675,31.617,237.082,31.617z M317.877,281.051H155.885c-11.028,0-20-8.971-20-20c0-11.027,8.972-20,20-20 h161.992c11.028,0,20,8.973,20,20C337.877,272.08,328.906,281.051,317.877,281.051z M317.877,201.388H155.885 c-11.028,0-20-8.972-20-20c0-11.028,8.972-20,20-20h161.992c11.028,0,20,8.972,20,20 C337.877,192.417,328.906,201.388,317.877,201.388z"/> </g> </g>
</svg>