<!DOCTYPE svg PUBLIC "-//W3C//DTD SVG 1.1//EN" "http://www.w3.org/Graphics/SVG/1.1/DTD/svg11.dtd">
<!-- Uploaded to: SVG Repo, www.svgrepo.com, Transformed by: SVG Repo Mixer Tools -->
<svg fill="#ffffff" width="800px" height="800px" viewBox="0 0 1024 1024" xmlns="http://www.w3.org/2000/svg" class="icon" stroke="#ffffff">
<g id="SVGRepo_bgCarrier" stroke-width="0"/>
<g id="SVGRepo_tracerCarrier" stroke-linecap="round" stroke-linejoin="round"/>
<g id="SVGRepo_iconCarrier"> <path d="M946.5 505L534.6 93.4a31.93 31.93 0 0 0-45.2 0L77.5 505c-12 12-18.8 28.3-18.8 45.3 0 35.3 28.7 64 64 64h43.4V908c0 17.7 14.3 32 32 32H448V716h112v224h265.9c17.7 0 32-14.3 32-32V614.3h43.4c17 0 33.3-6.7 45.3-18.8 24.9-25 24.9-65.5-.1-90.5z"/> </g>
</svg>